<mxfile host="app.diagrams.net" modified="2022-11-15T12:27:03.787Z" agent="5.0 (Macintosh; Intel Mac OS X 10_15_7) AppleWebKit/605.1.15 (KHTML, like Gecko) Version/16.1 Safari/605.1.15" etag="dxMcnVfxriNIgU92l2C5" version="20.5.3" type="github" pages="2">
  <diagram id="C5RBs43oDa-KdzZeNtuy" name="Page-1">
    <mxGraphModel dx="1225" dy="744" grid="1" gridSize="10" guides="1" tooltips="1" connect="1" arrows="1" fold="1" page="1" pageScale="1" pageWidth="1169" pageHeight="827" background="#F1FAEE" math="0" shadow="0">
      <root>
        <mxCell id="WIyWlLk6GJQsqaUBKTNV-0" />
        <mxCell id="WIyWlLk6GJQsqaUBKTNV-1" parent="WIyWlLk6GJQsqaUBKTNV-0" />
        <mxCell id="Qz4CMqI6DcYJkKGOj-ZE-3" style="edgeStyle=none;orthogonalLoop=1;jettySize=auto;html=1;entryX=1;entryY=0.5;entryDx=0;entryDy=0;strokeColor=#457B9D;fontColor=#1D3557;fillColor=#A8DADC;curved=1;rounded=1;sketch=1;labelBackgroundColor=#F1FAEE;" parent="WIyWlLk6GJQsqaUBKTNV-1" target="C-iHeUXCDEazz8vT2Lmx-13" edge="1">
          <mxGeometry relative="1" as="geometry">
            <mxPoint x="349" y="454" as="sourcePoint" />
            <Array as="points">
              <mxPoint x="309" y="444" />
            </Array>
          </mxGeometry>
        </mxCell>
        <mxCell id="Qz4CMqI6DcYJkKGOj-ZE-21" style="edgeStyle=none;curved=1;orthogonalLoop=1;jettySize=auto;html=1;entryX=0;entryY=0.5;entryDx=0;entryDy=0;strokeColor=#457B9D;fontColor=#1D3557;fillColor=#A8DADC;rounded=1;sketch=1;labelBackgroundColor=#F1FAEE;" parent="WIyWlLk6GJQsqaUBKTNV-1" source="C-iHeUXCDEazz8vT2Lmx-2" target="C-iHeUXCDEazz8vT2Lmx-26" edge="1">
          <mxGeometry relative="1" as="geometry">
            <Array as="points">
              <mxPoint x="599" y="466" />
              <mxPoint x="669" y="466" />
            </Array>
          </mxGeometry>
        </mxCell>
        <mxCell id="Qz4CMqI6DcYJkKGOj-ZE-43" style="edgeStyle=orthogonalEdgeStyle;curved=1;sketch=1;hachureGap=4;jiggle=2;orthogonalLoop=1;jettySize=auto;html=1;shadow=0;fontFamily=Architects Daughter;fontSource=https%3A%2F%2Ffonts.googleapis.com%2Fcss%3Ffamily%3DArchitects%2BDaughter;fontSize=16;labelBackgroundColor=#F1FAEE;strokeColor=#457B9D;fontColor=#1D3557;rounded=1;" parent="WIyWlLk6GJQsqaUBKTNV-1" edge="1">
          <mxGeometry relative="1" as="geometry">
            <mxPoint x="573" y="466" as="sourcePoint" />
            <mxPoint x="702" y="234" as="targetPoint" />
            <Array as="points">
              <mxPoint x="682" y="466" />
              <mxPoint x="682" y="234" />
            </Array>
          </mxGeometry>
        </mxCell>
        <mxCell id="Qz4CMqI6DcYJkKGOj-ZE-52" style="edgeStyle=orthogonalEdgeStyle;rounded=1;sketch=1;hachureGap=4;jiggle=2;orthogonalLoop=1;jettySize=auto;html=1;strokeColor=#457B9D;fontFamily=Architects Daughter;fontSource=https%3A%2F%2Ffonts.googleapis.com%2Fcss%3Ffamily%3DArchitects%2BDaughter;fontSize=16;fontColor=#1D3557;fillColor=#A8DADC;" parent="WIyWlLk6GJQsqaUBKTNV-1" source="C-iHeUXCDEazz8vT2Lmx-2" edge="1">
          <mxGeometry relative="1" as="geometry">
            <mxPoint x="709" y="564" as="targetPoint" />
            <Array as="points">
              <mxPoint x="599" y="466" />
              <mxPoint x="599" y="564" />
            </Array>
          </mxGeometry>
        </mxCell>
        <mxCell id="C-iHeUXCDEazz8vT2Lmx-2" value="" style="whiteSpace=wrap;html=1;aspect=fixed;fillColor=none;strokeColor=#457B9D;fontColor=#1D3557;rounded=1;sketch=1;" parent="WIyWlLk6GJQsqaUBKTNV-1" vertex="1">
          <mxGeometry x="350" y="356" width="220" height="220" as="geometry" />
        </mxCell>
        <mxCell id="C-iHeUXCDEazz8vT2Lmx-9" value="Request&amp;amp;Response SpecBuilder APIs&lt;br&gt;(Reusable)" style="rounded=1;whiteSpace=wrap;html=1;fillColor=#A8DADC;strokeColor=#457B9D;fontColor=#1D3557;sketch=1;" parent="WIyWlLk6GJQsqaUBKTNV-1" vertex="1">
          <mxGeometry x="379" y="396" width="170" height="70" as="geometry" />
        </mxCell>
        <mxCell id="C-iHeUXCDEazz8vT2Lmx-10" value="RestAssured Client APIs-Given-When-Then&amp;nbsp;&lt;br&gt;(Reusable)" style="rounded=1;whiteSpace=wrap;html=1;fillColor=#A8DADC;strokeColor=#457B9D;fontColor=#1D3557;sketch=1;" parent="WIyWlLk6GJQsqaUBKTNV-1" vertex="1">
          <mxGeometry x="380" y="486" width="170" height="60" as="geometry" />
        </mxCell>
        <mxCell id="C-iHeUXCDEazz8vT2Lmx-12" value="Data Loader&lt;br&gt;(Data Driven Tests)&lt;br&gt;-Dynamic Test Cases" style="rounded=1;whiteSpace=wrap;html=1;fillColor=#A8DADC;strokeColor=#457B9D;fontColor=#1D3557;sketch=1;" parent="WIyWlLk6GJQsqaUBKTNV-1" vertex="1">
          <mxGeometry x="712" y="130" width="120" height="60" as="geometry" />
        </mxCell>
        <mxCell id="C-iHeUXCDEazz8vT2Lmx-13" value="Reporting" style="rounded=1;whiteSpace=wrap;html=1;fillColor=#A8DADC;strokeColor=#457B9D;fontColor=#1D3557;sketch=1;" parent="WIyWlLk6GJQsqaUBKTNV-1" vertex="1">
          <mxGeometry x="130" y="426" width="120" height="60" as="geometry" />
        </mxCell>
        <mxCell id="C-iHeUXCDEazz8vT2Lmx-16" value="Utility Classes" style="rounded=1;whiteSpace=wrap;html=1;fillColor=#A8DADC;strokeColor=#457B9D;fontColor=#1D3557;sketch=1;" parent="WIyWlLk6GJQsqaUBKTNV-1" vertex="1">
          <mxGeometry x="712" y="268" width="120" height="60" as="geometry" />
        </mxCell>
        <mxCell id="C-iHeUXCDEazz8vT2Lmx-26" value="Test Logger" style="rounded=1;whiteSpace=wrap;html=1;fillColor=#A8DADC;strokeColor=#457B9D;fontColor=#1D3557;sketch=1;" parent="WIyWlLk6GJQsqaUBKTNV-1" vertex="1">
          <mxGeometry x="712" y="454" width="120" height="60" as="geometry" />
        </mxCell>
        <mxCell id="C-iHeUXCDEazz8vT2Lmx-34" value="&lt;b&gt;Automation Core Libraries&lt;/b&gt;" style="text;html=1;strokeColor=none;fillColor=none;align=center;verticalAlign=middle;whiteSpace=wrap;rounded=1;fontColor=#1D3557;sketch=1;" parent="WIyWlLk6GJQsqaUBKTNV-1" vertex="1">
          <mxGeometry x="389" y="356" width="150" height="30" as="geometry" />
        </mxCell>
        <mxCell id="C-iHeUXCDEazz8vT2Lmx-36" value="Resources" style="rounded=1;whiteSpace=wrap;html=1;fillColor=#A8DADC;strokeColor=#457B9D;fontColor=#1D3557;sketch=1;" parent="WIyWlLk6GJQsqaUBKTNV-1" vertex="1">
          <mxGeometry x="712" y="369" width="120" height="60" as="geometry" />
        </mxCell>
        <mxCell id="C-iHeUXCDEazz8vT2Lmx-40" value="&lt;h1&gt;&lt;font style=&quot;font-size: 12px;&quot;&gt;Tools &amp;amp; Technology in Use&lt;/font&gt;&lt;/h1&gt;&lt;div&gt;&lt;ul&gt;&lt;li&gt;&lt;font style=&quot;font-size: 12px;&quot;&gt;RestAssured&lt;/font&gt;&lt;/li&gt;&lt;li&gt;&lt;font style=&quot;font-size: 12px;&quot;&gt;TestNG&lt;br&gt;&lt;/font&gt;&lt;/li&gt;&lt;li&gt;&lt;font style=&quot;font-size: 12px;&quot;&gt;Java&lt;/font&gt;&lt;/li&gt;&lt;li&gt;&lt;font style=&quot;font-size: 12px;&quot;&gt;Hamcrest&lt;/font&gt;&lt;/li&gt;&lt;li&gt;&lt;font style=&quot;font-size: 12px;&quot;&gt;Allure Report&lt;/font&gt;&lt;/li&gt;&lt;li&gt;&lt;font style=&quot;font-size: 12px;&quot;&gt;Gradle&lt;/font&gt;&lt;/li&gt;&lt;li&gt;&lt;font style=&quot;font-size: 12px;&quot;&gt;Jackson API&lt;/font&gt;&lt;/li&gt;&lt;li&gt;&lt;font style=&quot;font-size: 12px;&quot;&gt;Lombok&lt;/font&gt;&lt;/li&gt;&lt;/ul&gt;&lt;/div&gt;&lt;div&gt;&lt;font size=&quot;3&quot;&gt;&lt;br&gt;&lt;/font&gt;&lt;/div&gt;" style="text;html=1;strokeColor=#36393d;fillColor=#cce5ff;spacing=5;spacingTop=-20;whiteSpace=wrap;overflow=hidden;rounded=1;sketch=1;fontFamily=Helvetica;" parent="WIyWlLk6GJQsqaUBKTNV-1" vertex="1">
          <mxGeometry x="880" y="23" width="180" height="189" as="geometry" />
        </mxCell>
        <mxCell id="C-iHeUXCDEazz8vT2Lmx-41" value="Configurable Endpoints" style="rounded=1;whiteSpace=wrap;html=1;fontSize=12;fillColor=#A8DADC;strokeColor=#457B9D;fontColor=#1D3557;sketch=1;" parent="WIyWlLk6GJQsqaUBKTNV-1" vertex="1">
          <mxGeometry x="712" y="534" width="120" height="60" as="geometry" />
        </mxCell>
        <mxCell id="SN1cI1Otdd67rSG5i7Jh-9" style="edgeStyle=none;rounded=1;orthogonalLoop=1;jettySize=auto;html=1;exitX=1;exitY=0.5;exitDx=0;exitDy=0;entryX=0;entryY=0.5;entryDx=0;entryDy=0;strokeColor=#457B9D;fontColor=#1D3557;fillColor=#A8DADC;curved=1;sketch=1;labelBackgroundColor=#F1FAEE;" parent="WIyWlLk6GJQsqaUBKTNV-1" source="SN1cI1Otdd67rSG5i7Jh-0" target="SN1cI1Otdd67rSG5i7Jh-4" edge="1">
          <mxGeometry relative="1" as="geometry" />
        </mxCell>
        <mxCell id="SN1cI1Otdd67rSG5i7Jh-10" style="edgeStyle=none;rounded=1;orthogonalLoop=1;jettySize=auto;html=1;entryX=0;entryY=0.5;entryDx=0;entryDy=0;strokeColor=#457B9D;fontColor=#1D3557;fillColor=#A8DADC;exitX=1;exitY=0.5;exitDx=0;exitDy=0;curved=1;sketch=1;labelBackgroundColor=#F1FAEE;" parent="WIyWlLk6GJQsqaUBKTNV-1" source="SN1cI1Otdd67rSG5i7Jh-0" target="SN1cI1Otdd67rSG5i7Jh-5" edge="1">
          <mxGeometry relative="1" as="geometry" />
        </mxCell>
        <mxCell id="SN1cI1Otdd67rSG5i7Jh-0" value="Parent TestSuite" style="rounded=1;whiteSpace=wrap;html=1;fillColor=#A8DADC;strokeColor=#457B9D;fontColor=#1D3557;sketch=1;" parent="WIyWlLk6GJQsqaUBKTNV-1" vertex="1">
          <mxGeometry x="130" y="195" width="120" height="60" as="geometry" />
        </mxCell>
        <mxCell id="SN1cI1Otdd67rSG5i7Jh-1" value="Entry Point" style="shape=singleArrow;whiteSpace=wrap;html=1;strokeColor=#457B9D;fontColor=#1D3557;fillColor=#A8DADC;rounded=1;sketch=1;" parent="WIyWlLk6GJQsqaUBKTNV-1" vertex="1">
          <mxGeometry x="59" y="204" width="60" height="70" as="geometry" />
        </mxCell>
        <mxCell id="SN1cI1Otdd67rSG5i7Jh-2" value="Test Clss 1" style="rounded=1;whiteSpace=wrap;html=1;fillColor=#A8DADC;strokeColor=#457B9D;fontColor=#1D3557;sketch=1;" parent="WIyWlLk6GJQsqaUBKTNV-1" vertex="1">
          <mxGeometry x="451" y="177" width="90" height="30" as="geometry" />
        </mxCell>
        <mxCell id="SN1cI1Otdd67rSG5i7Jh-14" value="" style="edgeStyle=none;rounded=1;orthogonalLoop=1;jettySize=auto;html=1;strokeColor=#457B9D;fontColor=#1D3557;fillColor=#A8DADC;curved=1;sketch=1;labelBackgroundColor=#F1FAEE;" parent="WIyWlLk6GJQsqaUBKTNV-1" source="SN1cI1Otdd67rSG5i7Jh-4" target="SN1cI1Otdd67rSG5i7Jh-2" edge="1">
          <mxGeometry relative="1" as="geometry" />
        </mxCell>
        <mxCell id="SN1cI1Otdd67rSG5i7Jh-4" value="Test Suite 1&lt;br&gt;(Feature)" style="rounded=1;whiteSpace=wrap;html=1;fillColor=#A8DADC;strokeColor=#457B9D;fontColor=#1D3557;sketch=1;" parent="WIyWlLk6GJQsqaUBKTNV-1" vertex="1">
          <mxGeometry x="289" y="172" width="101" height="40" as="geometry" />
        </mxCell>
        <mxCell id="SN1cI1Otdd67rSG5i7Jh-13" value="" style="edgeStyle=none;rounded=1;orthogonalLoop=1;jettySize=auto;html=1;strokeColor=#457B9D;fontColor=#1D3557;fillColor=#A8DADC;entryX=0;entryY=0.5;entryDx=0;entryDy=0;exitX=1;exitY=0.5;exitDx=0;exitDy=0;curved=1;sketch=1;labelBackgroundColor=#F1FAEE;" parent="WIyWlLk6GJQsqaUBKTNV-1" source="SN1cI1Otdd67rSG5i7Jh-5" target="SN1cI1Otdd67rSG5i7Jh-11" edge="1">
          <mxGeometry relative="1" as="geometry">
            <mxPoint x="410" y="280" as="sourcePoint" />
          </mxGeometry>
        </mxCell>
        <mxCell id="SN1cI1Otdd67rSG5i7Jh-5" value="Test Suite N&lt;br&gt;(Feature)" style="rounded=1;whiteSpace=wrap;html=1;fillColor=#A8DADC;strokeColor=#457B9D;fontColor=#1D3557;sketch=1;" parent="WIyWlLk6GJQsqaUBKTNV-1" vertex="1">
          <mxGeometry x="289" y="250" width="101" height="40" as="geometry" />
        </mxCell>
        <mxCell id="SN1cI1Otdd67rSG5i7Jh-8" value="" style="endArrow=none;dashed=1;html=1;dashPattern=1 3;strokeWidth=2;rounded=1;strokeColor=#457B9D;fontColor=#1D3557;fillColor=#A8DADC;exitX=0.5;exitY=0;exitDx=0;exitDy=0;entryX=0.5;entryY=1;entryDx=0;entryDy=0;curved=1;sketch=1;labelBackgroundColor=#F1FAEE;" parent="WIyWlLk6GJQsqaUBKTNV-1" source="SN1cI1Otdd67rSG5i7Jh-5" target="SN1cI1Otdd67rSG5i7Jh-4" edge="1">
          <mxGeometry width="50" height="50" relative="1" as="geometry">
            <mxPoint x="300" y="270" as="sourcePoint" />
            <mxPoint x="350" y="210" as="targetPoint" />
          </mxGeometry>
        </mxCell>
        <mxCell id="SN1cI1Otdd67rSG5i7Jh-11" value="Test Class N" style="rounded=1;whiteSpace=wrap;html=1;fillColor=#A8DADC;strokeColor=#457B9D;fontColor=#1D3557;sketch=1;" parent="WIyWlLk6GJQsqaUBKTNV-1" vertex="1">
          <mxGeometry x="454" y="279" width="90" height="30" as="geometry" />
        </mxCell>
        <mxCell id="SN1cI1Otdd67rSG5i7Jh-16" value="Test Class 2" style="rounded=1;whiteSpace=wrap;html=1;fillColor=#A8DADC;strokeColor=#457B9D;fontColor=#1D3557;sketch=1;" parent="WIyWlLk6GJQsqaUBKTNV-1" vertex="1">
          <mxGeometry x="451" y="212" width="89" height="30" as="geometry" />
        </mxCell>
        <mxCell id="SN1cI1Otdd67rSG5i7Jh-17" style="edgeStyle=none;rounded=1;orthogonalLoop=1;jettySize=auto;html=1;exitX=1;exitY=1;exitDx=0;exitDy=0;strokeColor=#457B9D;fontColor=#1D3557;fillColor=#A8DADC;curved=1;sketch=1;labelBackgroundColor=#F1FAEE;" parent="WIyWlLk6GJQsqaUBKTNV-1" source="SN1cI1Otdd67rSG5i7Jh-16" target="SN1cI1Otdd67rSG5i7Jh-16" edge="1">
          <mxGeometry relative="1" as="geometry" />
        </mxCell>
        <mxCell id="SN1cI1Otdd67rSG5i7Jh-20" value="" style="endArrow=none;dashed=1;html=1;dashPattern=1 3;strokeWidth=2;rounded=1;strokeColor=#457B9D;fontColor=#1D3557;fillColor=#A8DADC;exitX=0.5;exitY=0;exitDx=0;exitDy=0;curved=1;sketch=1;labelBackgroundColor=#F1FAEE;" parent="WIyWlLk6GJQsqaUBKTNV-1" edge="1">
          <mxGeometry width="50" height="50" relative="1" as="geometry">
            <mxPoint x="496.5" y="277" as="sourcePoint" />
            <mxPoint x="497" y="237" as="targetPoint" />
          </mxGeometry>
        </mxCell>
        <mxCell id="Qz4CMqI6DcYJkKGOj-ZE-34" value="" style="edgeStyle=none;curved=1;orthogonalLoop=1;jettySize=auto;html=1;strokeColor=#457B9D;fontColor=#1D3557;fillColor=#A8DADC;rounded=1;sketch=1;labelBackgroundColor=#F1FAEE;" parent="WIyWlLk6GJQsqaUBKTNV-1" edge="1">
          <mxGeometry relative="1" as="geometry">
            <mxPoint x="669" y="233.80827067669168" as="sourcePoint" />
            <mxPoint x="702" y="231.9473684210526" as="targetPoint" />
          </mxGeometry>
        </mxCell>
        <mxCell id="Qz4CMqI6DcYJkKGOj-ZE-45" style="edgeStyle=orthogonalEdgeStyle;rounded=1;sketch=1;hachureGap=4;jiggle=2;orthogonalLoop=1;jettySize=auto;html=1;strokeColor=#457B9D;fontFamily=Architects Daughter;fontSource=https%3A%2F%2Ffonts.googleapis.com%2Fcss%3Ffamily%3DArchitects%2BDaughter;fontSize=16;fontColor=#1D3557;fillColor=#A8DADC;" parent="WIyWlLk6GJQsqaUBKTNV-1" source="SN1cI1Otdd67rSG5i7Jh-28" target="C-iHeUXCDEazz8vT2Lmx-34" edge="1">
          <mxGeometry relative="1" as="geometry">
            <Array as="points">
              <mxPoint x="639" y="334" />
              <mxPoint x="464" y="334" />
            </Array>
          </mxGeometry>
        </mxCell>
        <mxCell id="Qz4CMqI6DcYJkKGOj-ZE-46" style="edgeStyle=orthogonalEdgeStyle;rounded=1;sketch=1;hachureGap=4;jiggle=2;orthogonalLoop=1;jettySize=auto;html=1;entryX=0;entryY=0.25;entryDx=0;entryDy=0;strokeColor=#457B9D;fontFamily=Architects Daughter;fontSource=https%3A%2F%2Ffonts.googleapis.com%2Fcss%3Ffamily%3DArchitects%2BDaughter;fontSize=16;fontColor=#1D3557;fillColor=#A8DADC;" parent="WIyWlLk6GJQsqaUBKTNV-1" edge="1">
          <mxGeometry relative="1" as="geometry">
            <mxPoint x="634" y="315.5" as="sourcePoint" />
            <mxPoint x="707" y="549" as="targetPoint" />
            <Array as="points">
              <mxPoint x="634" y="554" />
              <mxPoint x="707" y="554" />
            </Array>
          </mxGeometry>
        </mxCell>
        <mxCell id="SN1cI1Otdd67rSG5i7Jh-28" value="Test&lt;br&gt;API&lt;br&gt;Library&lt;br&gt;1&lt;br&gt;.&lt;br&gt;.&lt;br&gt;.&lt;br&gt;.&lt;br&gt;N" style="rounded=1;whiteSpace=wrap;html=1;fillColor=#A8DADC;strokeColor=#457B9D;fontColor=#1D3557;sketch=1;" parent="WIyWlLk6GJQsqaUBKTNV-1" vertex="1">
          <mxGeometry x="609" y="155.5" width="60" height="160" as="geometry" />
        </mxCell>
        <mxCell id="Qz4CMqI6DcYJkKGOj-ZE-29" value="" style="edgeStyle=none;curved=1;orthogonalLoop=1;jettySize=auto;html=1;strokeColor=#457B9D;fontColor=#1D3557;fillColor=#A8DADC;rounded=1;sketch=1;labelBackgroundColor=#F1FAEE;" parent="WIyWlLk6GJQsqaUBKTNV-1" source="SN1cI1Otdd67rSG5i7Jh-24" target="SN1cI1Otdd67rSG5i7Jh-28" edge="1">
          <mxGeometry relative="1" as="geometry" />
        </mxCell>
        <mxCell id="SN1cI1Otdd67rSG5i7Jh-24" value="&lt;br&gt;&lt;br&gt;&lt;br&gt;&lt;br&gt;&lt;br&gt;&lt;br&gt;&lt;br&gt;&lt;br&gt;&lt;br&gt;&lt;br&gt;" style="rounded=1;whiteSpace=wrap;html=1;strokeColor=#457B9D;fontColor=#1D3557;fillColor=none;sketch=1;" parent="WIyWlLk6GJQsqaUBKTNV-1" vertex="1">
          <mxGeometry x="119" y="155.5" width="450" height="167" as="geometry" />
        </mxCell>
        <mxCell id="SN1cI1Otdd67rSG5i7Jh-38" value="Config Loader" style="rounded=1;whiteSpace=wrap;html=1;fillColor=#A8DADC;strokeColor=#457B9D;fontColor=#1D3557;sketch=1;" parent="WIyWlLk6GJQsqaUBKTNV-1" vertex="1">
          <mxGeometry x="712" y="201" width="120" height="56" as="geometry" />
        </mxCell>
        <mxCell id="Qz4CMqI6DcYJkKGOj-ZE-23" style="edgeStyle=none;curved=1;orthogonalLoop=1;jettySize=auto;html=1;strokeColor=#457B9D;fontColor=#1D3557;fillColor=#A8DADC;entryX=1;entryY=0.5;entryDx=0;entryDy=0;rounded=1;sketch=1;labelBackgroundColor=#F1FAEE;" parent="WIyWlLk6GJQsqaUBKTNV-1" source="SN1cI1Otdd67rSG5i7Jh-40" target="C-iHeUXCDEazz8vT2Lmx-26" edge="1">
          <mxGeometry relative="1" as="geometry">
            <mxPoint x="839" y="484" as="targetPoint" />
            <Array as="points">
              <mxPoint x="869" y="234" />
              <mxPoint x="869" y="314" />
              <mxPoint x="869" y="484" />
            </Array>
          </mxGeometry>
        </mxCell>
        <mxCell id="Qz4CMqI6DcYJkKGOj-ZE-24" value="" style="edgeStyle=none;curved=1;orthogonalLoop=1;jettySize=auto;html=1;strokeColor=#457B9D;fontColor=#1D3557;fillColor=#A8DADC;rounded=1;sketch=1;labelBackgroundColor=#F1FAEE;" parent="WIyWlLk6GJQsqaUBKTNV-1" source="SN1cI1Otdd67rSG5i7Jh-40" target="C-iHeUXCDEazz8vT2Lmx-36" edge="1">
          <mxGeometry relative="1" as="geometry" />
        </mxCell>
        <mxCell id="SN1cI1Otdd67rSG5i7Jh-40" value="" style="rounded=1;whiteSpace=wrap;html=1;strokeColor=#457B9D;fontColor=#1D3557;fillColor=none;sketch=1;" parent="WIyWlLk6GJQsqaUBKTNV-1" vertex="1">
          <mxGeometry x="702" y="118" width="140" height="220" as="geometry" />
        </mxCell>
        <mxCell id="Qz4CMqI6DcYJkKGOj-ZE-2" style="edgeStyle=none;rounded=1;orthogonalLoop=1;jettySize=auto;html=1;exitX=0;exitY=0;exitDx=0;exitDy=32.5;exitPerimeter=0;strokeColor=#457B9D;fontColor=#1D3557;fillColor=#A8DADC;curved=1;sketch=1;labelBackgroundColor=#F1FAEE;" parent="WIyWlLk6GJQsqaUBKTNV-1" source="SN1cI1Otdd67rSG5i7Jh-1" target="SN1cI1Otdd67rSG5i7Jh-1" edge="1">
          <mxGeometry relative="1" as="geometry" />
        </mxCell>
        <mxCell id="Qz4CMqI6DcYJkKGOj-ZE-54" value="&lt;font style=&quot;font-size: 42px;&quot;&gt;Automation Framework&lt;/font&gt;" style="shape=document;whiteSpace=wrap;html=1;boundedLbl=1;rounded=1;sketch=1;hachureGap=4;jiggle=2;strokeColor=#36393d;fontFamily=Comic Sans MS;fontSize=12;fillColor=#cce5ff;" parent="WIyWlLk6GJQsqaUBKTNV-1" vertex="1">
          <mxGeometry x="130" y="660" width="730" height="80" as="geometry" />
        </mxCell>
      </root>
    </mxGraphModel>
  </diagram>
  <diagram id="K-7nh9X-Kd9XJ5twshSG" name="Page-2">
    <mxGraphModel dx="1212" dy="744" grid="1" gridSize="10" guides="1" tooltips="1" connect="1" arrows="1" fold="1" page="1" pageScale="1" pageWidth="1169" pageHeight="827" math="0" shadow="0">
      <root>
        <mxCell id="0" />
        <mxCell id="1" parent="0" />
      </root>
    </mxGraphModel>
  </diagram>
</mxfile>
